<svg width="316" height="197" viewBox="0 0 316 197" fill="none" xmlns="http://www.w3.org/2000/svg">
<g id="Cloud">
<g id="Vector">
<path d="M48.4715 86.2148C33.6312 89.5144 20.6653 97.4888 12.0098 108.64C3.35435 119.791 -0.394939 133.351 1.46639 146.772C3.32772 160.193 10.6715 172.552 22.1181 181.526C33.5647 190.5 48.3261 195.472 63.6289 195.508H236.229C247.307 195.502 258.258 193.422 268.362 189.406C278.465 185.39 287.491 179.529 294.846 172.209C302.201 164.888 307.718 156.275 311.033 146.935C314.349 137.594 315.389 127.74 314.084 118.019C312.778 108.298 309.158 98.9322 303.461 90.5369C297.764 82.1416 290.119 74.9076 281.03 69.3111C271.941 63.7145 261.613 59.8823 250.727 58.0667C239.841 56.251 228.643 56.4931 217.87 58.777L197.002 63.796" fill="#63C0F5"/>
<path d="M48.4715 86.2148C33.6312 89.5144 20.6653 97.4888 12.0098 108.64C3.35435 119.791 -0.394939 133.351 1.46639 146.772C3.32772 160.193 10.6715 172.552 22.1181 181.526C33.5647 190.5 48.3261 195.472 63.6289 195.508H236.229C247.307 195.502 258.258 193.422 268.362 189.406C278.465 185.39 287.491 179.529 294.846 172.209C302.201 164.888 307.718 156.275 311.033 146.935C314.349 137.594 315.389 127.74 314.084 118.019C312.778 108.298 309.158 98.9322 303.461 90.5369C297.764 82.1416 290.119 74.9076 281.03 69.3111C271.941 63.7145 261.613 59.8823 250.727 58.0667C239.841 56.251 228.643 56.4931 217.87 58.777L197.002 63.796" stroke="#F7F7F7" stroke-width="2" stroke-linecap="round" stroke-linejoin="round"/>
</g>
<g id="Vector_2">
<path d="M217.871 58.7772C212.508 40.0126 199.27 23.752 180.842 13.2915C162.414 2.83098 140.173 -1.04667 118.63 2.44458C97.0857 5.93583 77.8502 16.5348 64.8224 32.0928C51.7946 47.6508 45.9494 67.0039 48.4715 86.2288C48.4715 86.2288 50.8722 98.4572 55.7835 105.389" fill="#63C0F5"/>
<path d="M217.871 58.7772C212.508 40.0126 199.27 23.752 180.842 13.2915C162.414 2.83098 140.173 -1.04667 118.63 2.44458C97.0857 5.93583 77.8502 16.5348 64.8224 32.0928C51.7946 47.6508 45.9494 67.0039 48.4715 86.2288C48.4715 86.2288 50.8722 98.4572 55.7835 105.389" stroke="#F7F7F7" stroke-width="2" stroke-linecap="round" stroke-linejoin="round"/>
</g>
</g>
</svg>
