<svg width="170" height="181" viewBox="0 0 170 181" fill="none" xmlns="http://www.w3.org/2000/svg">
<g id="Moon">
<path id="Vector" d="M67.875 3.14502C68.9793 4.48682 69.6557 6.12894 69.8171 7.85919C69.9784 9.58944 69.6172 11.3283 68.78 12.8511C62.2398 24.8591 58.8243 38.3189 58.8476 51.9924C58.8476 97.4799 95.93 134.313 141.633 134.313C147.594 134.313 153.398 133.691 158.975 132.503C160.684 132.133 162.465 132.275 164.095 132.911C165.724 133.546 167.13 134.648 168.138 136.078C169.201 137.565 169.743 139.362 169.68 141.189C169.616 143.016 168.951 144.771 167.787 146.18C158.914 157.079 147.721 165.861 135.024 171.884C122.327 177.908 108.445 181.022 94.3915 181C42.2409 181 0 138.986 0 87.2195C0 48.2593 23.9146 14.8421 57.9653 0.678892C59.6614 -0.0379602 61.5444 -0.185091 63.3313 0.259602C65.1183 0.704294 66.7126 1.7168 67.875 3.14502V3.14502Z" fill="#BDEFFF"/>
</g>
</svg>
