<svg width="276" height="276" viewBox="0 0 276 276" fill="none" xmlns="http://www.w3.org/2000/svg">
<g id="Sun">
<path id="Vector" fill-rule="evenodd" clip-rule="evenodd" d="M137.6 0C142.162 0 146.537 1.81214 149.762 5.03776C152.988 8.26339 154.8 12.6383 154.8 17.2V34.4C154.8 38.9617 152.988 43.3366 149.762 46.5622C146.537 49.7879 142.162 51.6 137.6 51.6C133.038 51.6 128.663 49.7879 125.438 46.5622C122.212 43.3366 120.4 38.9617 120.4 34.4V17.2C120.4 12.6383 122.212 8.26339 125.438 5.03776C128.663 1.81214 133.038 0 137.6 0V0ZM206.4 137.6C206.4 155.847 199.151 173.346 186.249 186.249C173.346 199.151 155.847 206.4 137.6 206.4C119.353 206.4 101.854 199.151 88.9511 186.249C76.0486 173.346 68.8 155.847 68.8 137.6C68.8 119.353 76.0486 101.854 88.9511 88.9511C101.854 76.0486 119.353 68.8 137.6 68.8C155.847 68.8 173.346 76.0486 186.249 88.9511C199.151 101.854 206.4 119.353 206.4 137.6V137.6ZM198.419 222.74L210.58 234.9C213.824 238.034 218.168 239.767 222.678 239.728C227.188 239.689 231.502 237.88 234.691 234.691C237.88 231.502 239.689 227.188 239.728 222.678C239.767 218.168 238.034 213.824 234.9 210.58L222.74 198.419C219.496 195.286 215.151 193.552 210.642 193.592C206.132 193.631 201.818 195.44 198.629 198.629C195.44 201.818 193.631 206.132 193.592 210.642C193.552 215.151 195.286 219.496 198.419 222.74V222.74ZM234.883 40.2996C238.108 43.5251 239.919 47.8992 239.919 52.46C239.919 57.0208 238.108 61.3949 234.883 64.6204L222.74 76.7808C221.153 78.4236 219.255 79.7339 217.157 80.6353C215.058 81.5368 212.802 82.0113 210.518 82.0311C208.234 82.051 205.969 81.6158 203.855 80.7509C201.741 79.8861 199.821 78.609 198.206 76.994C196.591 75.379 195.314 73.4586 194.449 71.3448C193.584 69.231 193.149 66.9661 193.169 64.6823C193.189 62.3985 193.663 60.1415 194.565 58.043C195.466 55.9446 196.776 54.0467 198.419 52.46L210.58 40.2996C213.805 37.0751 218.179 35.2637 222.74 35.2637C227.301 35.2637 231.675 37.0751 234.9 40.2996H234.883ZM258 154.8C262.562 154.8 266.937 152.988 270.162 149.762C273.388 146.537 275.2 142.162 275.2 137.6C275.2 133.038 273.388 128.663 270.162 125.438C266.937 122.212 262.562 120.4 258 120.4H240.8C236.238 120.4 231.863 122.212 228.638 125.438C225.412 128.663 223.6 133.038 223.6 137.6C223.6 142.162 225.412 146.537 228.638 149.762C231.863 152.988 236.238 154.8 240.8 154.8H258ZM137.6 223.6C142.162 223.6 146.537 225.412 149.762 228.638C152.988 231.863 154.8 236.238 154.8 240.8V258C154.8 262.562 152.988 266.937 149.762 270.162C146.537 273.388 142.162 275.2 137.6 275.2C133.038 275.2 128.663 273.388 125.438 270.162C122.212 266.937 120.4 262.562 120.4 258V240.8C120.4 236.238 122.212 231.863 125.438 228.638C128.663 225.412 133.038 223.6 137.6 223.6V223.6ZM52.46 76.7808C54.0569 78.3789 55.953 79.6467 58.0399 80.512C60.1268 81.3773 62.3637 81.8231 64.6229 81.8239C66.8821 81.8247 69.1193 81.3805 71.2069 80.5167C73.2944 79.6529 75.1913 78.3863 76.7894 76.7894C78.3875 75.1925 79.6553 73.2964 80.5206 71.2095C81.3859 69.1226 81.8317 66.8857 81.8325 64.6265C81.8333 62.3673 81.3891 60.1301 80.5253 58.0425C79.6615 55.955 78.3949 54.0581 76.798 52.46L64.6204 40.2996C61.3764 37.1665 57.0317 35.4328 52.5219 35.472C48.0121 35.5112 43.6981 37.3201 40.5091 40.5091C37.3201 43.6981 35.5112 48.0121 35.472 52.5219C35.4328 57.0317 37.1665 61.3764 40.2996 64.6204L52.46 76.7808V76.7808ZM76.7808 222.74L64.6204 234.9C61.3764 238.034 57.0317 239.767 52.5219 239.728C48.0121 239.689 43.6981 237.88 40.5091 234.691C37.3201 231.502 35.5112 227.188 35.472 222.678C35.4328 218.168 37.1665 213.824 40.2996 210.58L52.46 198.419C55.704 195.286 60.0487 193.552 64.5585 193.592C69.0683 193.631 73.3823 195.44 76.5713 198.629C79.7603 201.818 81.5692 206.132 81.6084 210.642C81.6476 215.151 79.9139 219.496 76.7808 222.74V222.74ZM34.4 154.8C38.9617 154.8 43.3366 152.988 46.5622 149.762C49.7879 146.537 51.6 142.162 51.6 137.6C51.6 133.038 49.7879 128.663 46.5622 125.438C43.3366 122.212 38.9617 120.4 34.4 120.4H17.2C12.6383 120.4 8.26339 122.212 5.03776 125.438C1.81214 128.663 0 133.038 0 137.6C0 142.162 1.81214 146.537 5.03776 149.762C8.26339 152.988 12.6383 154.8 17.2 154.8H34.4Z" fill="#FFE603"/>
</g>
</svg>
